<?xml version="1.0" encoding="utf-8"?>
<!-- Generator: Adobe Illustrator 16.0.0, SVG Export Plug-In . SVG Version: 6.00 Build 0)  -->
<!DOCTYPE svg PUBLIC "-//W3C//DTD SVG 1.1//EN" "http://www.w3.org/Graphics/SVG/1.1/DTD/svg11.dtd">
<svg version="1.1" id="Layer_1" xmlns="http://www.w3.org/2000/svg" xmlns:xlink="http://www.w3.org/1999/xlink" x="0px" y="0px"
	 width="144px" height="144px" viewBox="0 0 144 144" enable-background="new 0 0 144 144" xml:space="preserve">
<g>
	<path fill="#00adc6" d="M41.125,100.009c0,10.496-8.504,19-19,19s-19-8.504-19-19c0-10.488,8.504-19,19-19
		S41.125,89.521,41.125,100.009z"/>
	<path fill="#00adc6" d="M91.792,70.692c0,10.496-8.505,19-19,19c-10.496,0-19-8.504-19-19c0-10.488,8.504-19,19-19
		C83.287,51.692,91.792,60.204,91.792,70.692z"/>
	<path fill="#00adc6" d="M140.875,43.987c0,10.496-8.504,19-19,19s-19-8.504-19-19c0-10.49,8.504-19,19-19
		S140.875,33.497,140.875,43.987z"/>
</g>
</svg>
